<svg width="32" height="33" viewBox="0 0 32 33" fill="none" xmlns="http://www.w3.org/2000/svg">
<path d="M16 11.5C22.6274 11.5 28 9.70911 28 7.49997C28 5.29083 22.6274 3.49997 16 3.49997C9.37258 3.49997 4 5.29083 4 7.49997C4 9.70911 9.37258 11.5 16 11.5Z" stroke="#2563EB" stroke-width="2" stroke-linecap="round" stroke-linejoin="round"/>
<path d="M4 7.49997V26.1666C4 27.2275 5.26428 28.2449 7.51472 28.9951C9.76516 29.7452 12.8174 30.1666 16 30.1666C19.1826 30.1666 22.2348 29.7452 24.4853 28.9951C26.7357 28.2449 28 27.2275 28 26.1666V7.49997" stroke="#2563EB" stroke-width="2" stroke-linecap="round" stroke-linejoin="round"/>
<path d="M4 16.8333C4 17.8942 5.26428 18.9116 7.51472 19.6617C9.76516 20.4119 12.8174 20.8333 16 20.8333C19.1826 20.8333 22.2348 20.4119 24.4853 19.6617C26.7357 18.9116 28 17.8942 28 16.8333" stroke="#2563EB" stroke-width="2" stroke-linecap="round" stroke-linejoin="round"/>
</svg>
